<svg width="41" height="38" viewBox="0 0 41 38" fill="none" xmlns="http://www.w3.org/2000/svg">
<g opacity="0.4">
<path d="M39.7823 37.3561C39.7093 37.3781 39.6315 37.3781 39.5585 37.3561L28.9029 29.7898C27.0523 30.6404 13.2926 36.401 3.36834 26.4021C-0.914785 22.104 -1.10878 15.4779 2.92064 9.50837C5.69154 5.36695 9.82691 2.32828 14.607 0.921238C19.3871 -0.485801 24.5093 -0.172119 29.082 1.8077C35.2008 4.37459 38.8272 7.77721 39.857 12.0454C41.3493 18.2388 36.7677 23.7606 36.5737 23.9844C36.5446 24.0282 36.5066 24.0653 36.4622 24.0934C36.4178 24.1215 36.3679 24.1398 36.3159 24.1473C36.2638 24.1547 36.2108 24.1511 36.1603 24.1366C36.1098 24.1222 36.0629 24.0972 36.0226 24.0633C35.9824 24.0295 35.9499 23.9875 35.927 23.9402C35.9042 23.8929 35.8915 23.8412 35.89 23.7887C35.8885 23.7362 35.8981 23.6839 35.9182 23.6353C35.9383 23.5868 35.9684 23.543 36.0066 23.5069C36.0066 23.5069 40.4837 18.0149 39.1257 12.2096C38.1556 8.21 34.6486 4.94171 28.7835 2.47929C24.3682 0.577102 19.426 0.281961 14.8157 1.64516C10.2053 3.00835 6.21831 5.94371 3.54741 9.94117C0.562661 14.4183 -0.9297 20.9997 3.89068 25.8947C14.1284 36.1772 28.6193 29.1182 28.7686 29.0436C28.828 29.0109 28.8948 28.9938 28.9626 28.9938C29.0304 28.9938 29.0972 29.0109 29.1566 29.0436L38.484 35.6399L34.8127 29.5212C34.782 29.4789 34.7605 29.4307 34.7496 29.3797C34.7387 29.3286 34.7386 29.2759 34.7494 29.2248C34.7601 29.1737 34.7815 29.1254 34.8121 29.0831C34.8427 29.0408 34.8818 29.0054 34.9269 28.9792C34.972 28.9529 35.0222 28.9365 35.0741 28.9308C35.126 28.9252 35.1785 28.9305 35.2282 28.9464C35.2779 28.9623 35.3237 28.9885 35.3627 29.0232C35.4017 29.058 35.4329 29.1005 35.4544 29.1481L40.0957 36.8189C40.1454 36.8858 40.1722 36.9669 40.1722 37.0502C40.1722 37.1335 40.1454 37.2146 40.0957 37.2815C40.0536 37.3186 40.003 37.3449 39.9483 37.3579C39.8937 37.3709 39.8367 37.3703 39.7823 37.3561Z" fill="white"/>
</g>
</svg>
