<svg width="60" height="60" viewBox="0 0 60 60" fill="none" xmlns="http://www.w3.org/2000/svg">
<circle cx="30" cy="30" r="29" transform="matrix(-1 0 0 1 60 0)" stroke="#0078FF" stroke-width="2"/>
<path d="M21.25 28.7496H36.075L31.5375 23.2996C31.3253 23.0443 31.2232 22.7152 31.2537 22.3847C31.2842 22.0542 31.4447 21.7493 31.7 21.5371C31.9553 21.3249 32.2844 21.2229 32.6149 21.2533C32.9454 21.2838 33.2503 21.4443 33.4625 21.6996L39.7125 29.1996C39.7545 29.2593 39.7922 29.3219 39.825 29.3871C39.825 29.4496 39.825 29.4871 39.9125 29.5496C39.9692 29.6929 39.9988 29.8455 40 29.9996C39.9988 30.1537 39.9692 30.3063 39.9125 30.4496C39.9125 30.5121 39.9125 30.5496 39.825 30.6121C39.7922 30.6773 39.7545 30.74 39.7125 30.7996L33.4625 38.2996C33.345 38.4407 33.1978 38.5542 33.0314 38.632C32.8651 38.7097 32.6836 38.7499 32.5 38.7496C32.2079 38.7502 31.9249 38.6485 31.7 38.4621C31.5734 38.3572 31.4688 38.2283 31.3921 38.0829C31.3154 37.9374 31.2682 37.7783 31.2531 37.6146C31.238 37.4509 31.2553 37.2858 31.3041 37.1288C31.3529 36.9718 31.4322 36.8259 31.5375 36.6996L36.075 31.2496H21.25C20.9185 31.2496 20.6005 31.1179 20.3661 30.8835C20.1317 30.6491 20 30.3311 20 29.9996C20 29.6681 20.1317 29.3501 20.3661 29.1157C20.6005 28.8813 20.9185 28.7496 21.25 28.7496Z" fill="#0078FF"/>
</svg>
